Coordinates
version=1
nRows=25
nColumns=23
inDegrees=yes

Units are S.I. units (second, meters, Newtons, ...)
If the header above contains a line with 'inDegrees', this indicates whether rotational values are in degrees (yes) or radians (no).

endheader
time	pelvis_tilt	pelvis_list	pelvis_rotation	pelvis_tx	pelvis_ty	pelvis_tz	hip_flexion_r	hip_adduction_r	hip_rotation_r	knee_angle_r	knee_angle_r_beta	ankle_angle_r	subtalar_angle_r	mtp_angle_r	hip_flexion_l	hip_adduction_l	hip_rotation_l	knee_angle_l	knee_angle_l_beta	ankle_angle_l	subtalar_angle_l	mtp_angle_l
     22.50000000	     -0.93618530	      4.02086335	     -3.14959823	      2.30679943	      1.04482541	      1.07427502	    -12.11049856	     -3.74444635	     -1.59376312	     21.41444031	      0.37375249	      5.52985188	      3.11615955	      0.00000000	     33.98412786	     -1.39789419	     -9.40206115	     87.48613002	      1.52692102	     -7.54671797	    -12.88805919	      0.00000000
     22.50666667	     -1.28770368	      4.36881728	     -2.70801933	      2.30981624	      1.05031135	      1.07326853	    -14.02376352	     -4.19830588	     -2.89969201	     19.03426617	      0.33221062	      1.07566368	      3.66773772	      0.00000000	     34.31180720	     -0.72532053	     -9.81140816	     84.00057387	      1.46608659	     -5.80224543	    -12.40824119	      0.00000000
     22.51333333	     -1.37118141	      4.38957271	     -2.40814576	      2.31286697	      1.05615500	      1.07252031	    -16.30269552	     -4.12151922	     -3.15385679	     16.37439894	      0.28578717	     -3.76160871	      2.83442858	      0.00000000	     34.18700207	     -0.45858739	    -10.16512564	     80.34834817	      1.40234322	     -4.14701044	    -11.79162907	      0.00000000
     22.52000000	     -1.69281348	      4.43056842	     -1.92562032	      2.31582846	      1.06131820	      1.07140084	    -17.94745540	     -4.16832713	     -4.43033590	     14.52870424	      0.25357373	     -7.89724737	      3.13994292	      0.00000000	     34.27204126	     -0.01548425	    -10.31622020	     76.58391315	      1.33664144	     -2.62729317	    -11.08609989	      0.00000000
     22.52666667	     -2.07118926	      4.38492745	     -1.40852842	      2.31865812	      1.06608943	      1.07020368	    -19.30955001	     -4.09093004	     -5.68467476	     13.15332835	      0.22956889	    -11.54422309	      3.11817658	      0.00000000	     34.33135120	      0.39577551	    -10.34098459	     72.68443018	      1.26858262	     -1.22162178	    -10.20496989	      0.00000000
     22.53333333	     -2.35592842	      4.15122030	     -1.01983550	      2.32131154	      1.07059585	      1.06922867	    -20.59833374	     -3.78338879	     -6.37857761	     12.10589591	      0.21128774	    -14.87250086	      2.42655504	      0.00000000	     34.18596427	      0.53386845	    -10.38613288	     68.68291219	      1.19874296	      0.06523383	     -9.35526346	      0.00000000
     22.54000000	     -2.86012129	      3.90657490	     -0.48196373	      2.32371664	      1.07423775	      1.06801854	    -21.20704681	     -3.56426784	     -7.91585071	     12.09912482	      0.21116956	    -17.20066287	      2.32818592	      0.00000000	     34.24560540	      0.79994930	    -10.21896653	     64.60702826	      1.12760536	      1.27251432	     -8.33215912	      0.00000000
     22.54666667	     -3.50626120	      3.58731766	      0.00523750	      2.32574834	      1.07714167	      1.06685875	    -21.31552251	     -3.35511797	     -9.47949630	     12.87873141	      0.22477627	    -18.95228102	      1.89414382	      0.00000000	     34.40586722	      0.98299365	    -10.02840466	     60.45590423	      1.05515458	      2.37236633	     -7.31039590	      0.00000000
     22.55333333	     -4.02122868	      3.37126921	      0.57162681	      2.32768171	      1.07954567	      1.06562887	    -21.37412016	     -3.29547281	    -11.31645758	     14.22815668	      0.24832818	    -20.03331593	      1.48106507	      0.00000000	     34.32898527	      1.33771926	     -9.78888214	     56.18271206	      0.98057331	      3.48184612	     -6.04472331	      0.00000000
     22.56000000	     -4.69251964	      3.24459906	      1.08539187	      2.32914831	      1.08100297	      1.06439969	    -20.84885907	     -3.60537999	    -13.76121870	     16.61391484	      0.28996752	    -20.35974028	      1.73770914	      0.00000000	     34.36615057	      1.76046219	     -9.63022935	     51.85022555	      0.90495715	      4.52085759	     -4.76879370	      0.00000000
     22.56666667	     -5.48033170	      3.19918221	      1.61504662	      2.33039407	      1.08163723	      1.06304879	    -20.12365886	     -4.05963840	    -15.89087857	     19.33035542	      0.33737835	    -20.47011925	      1.25702863	      0.00000000	     34.44971245	      2.29930660	     -9.47535907	     47.44351116	      0.82804548	      5.47972415	     -3.57091825	      0.00000000
     22.57333333	     -6.23692807	      3.32485250	      2.14393490	      2.33138842	      1.08171134	      1.06163886	    -19.39009771	     -4.71677574	    -17.65411569	     22.27262210	      0.38873059	    -20.46242475	      0.34245580	      0.00000000	     34.40641973	      3.03921793	     -9.34878192	     42.96345016	      0.74985366	      6.34477722	     -2.32162469	      0.00000000
     22.58000000	     -6.95864873	      3.55178478	      2.65660963	      2.33224189	      1.08127267	      1.06019749	    -18.67828627	     -5.47562477	    -18.99598203	     25.33860357	      0.44224206	    -20.37131007	     -0.91482038	      0.00000000	     34.22001902	      3.87431948	     -9.27183508	     38.42692416	      0.67067635	      7.15079658	     -1.09019090	      0.00000000
     22.58666667	     -7.54459137	      3.79749285	      3.15491041	      2.33290399	      1.08054660	      1.05882901	    -18.09557425	     -6.14647070	    -19.72251386	     28.39861884	      0.49564940	    -20.51537876	     -2.83995809	      0.00000000	     33.82615601	      4.71433918	     -9.18731830	     33.94117338	      0.59238523	      7.90199242	      0.23279127	      0.00000000
     22.59333333	     -8.09754457	      4.18860078	      3.52770506	      2.33346212	      1.07946560	      1.05760835	    -17.45733529	     -6.99352700	    -20.08324646	     31.61825682	      0.55184269	    -20.57025119	     -4.50910942	      0.00000000	     33.27724782	      5.66588562	     -9.10749014	     29.41899202	      0.51345827	      8.51409032	      1.36550997	      0.00000000
     22.60000000	     -8.52327550	      4.60213153	      3.88131924	      2.33390094	      1.07811332	      1.05652019	    -16.88450184	     -7.78788813	    -20.09689615	     34.90276474	      0.60916816	    -20.79465599	     -6.24888579	      0.00000000	     32.54381960	      6.65050231	     -8.80444817	     25.03224857	      0.43689516	      9.01880664	      2.32574091	      0.00000000
     22.60666667	     -8.80239883	      5.06139630	      4.20117288	      2.33422953	      1.07661115	      1.05562549	    -16.36785753	     -8.54429130	    -19.77788216	     38.26333282	      0.66782114	    -21.15394706	     -7.80372126	      0.00000000	     31.53951027	      7.75595548	     -7.84513579	     20.65448577	      0.36048878	      9.19537451	      2.35941941	      0.00000000
     22.61333333	     -8.95565076	      5.45144736	      4.44195560	      2.33447668	      1.07488192	      1.05507773	    -15.86563128	     -9.12277285	    -19.08808308	     41.65485219	      0.72701432	    -21.81133306	     -9.41886693	      0.00000000	     30.42460383	      8.66842414	     -6.75252768	     16.64542470	      0.29051747	      9.31827236	      2.48486231	      0.00000000
     22.62000000	     -8.99307009	      5.79744825	      4.61722222	      2.33462415	      1.07289596	      1.05486824	    -15.35148627	     -9.58051312	    -18.17184103	     45.12542121	      0.78758718	    -22.66093275	    -10.82801391	      0.00000000	     29.25022928	      9.41070450	     -5.54772658	     13.10358751	      0.22870075	      9.34315298	      2.57527573	      0.00000000
     22.62666667	     -8.93537104	      6.08883671	      4.77588792	      2.33469479	      1.07062050	      1.05488058	    -14.81188191	     -9.89706646	    -17.12157402	     48.66374241	      0.84934253	    -23.75008571	    -11.96921789	      0.00000000	     28.11917505	      9.98001252	     -4.39268978	     10.21557016	      0.17829533	      9.37736736	      2.82483112	      0.00000000
     22.63333333	     -8.85293846	      6.41009201	      4.93095275	      2.33458640	      1.06792525	      1.05502444	    -14.17893690	    -10.22710219	    -16.08728096	     52.31555248	      0.91307864	    -24.94325881	    -12.84272295	      0.00000000	     27.22762383	     10.46274600	     -3.59099028	      8.22587361	      0.14356858	      9.49121973	      3.44601127	      0.00000000
     22.64000000	     -8.72336878	      6.67180961	      5.19729277	      2.33431045	      1.06491356	      1.05508162	    -13.52846755	    -10.48499953	    -15.24851399	     56.00220947	      0.97742294	    -26.23951400	    -13.42393007	      0.00000000	     26.49502346	     10.89076755	     -2.70233534	      7.02880842	      0.12267585	      9.63043312	      4.04134797	      0.00000000
     22.64666667	     -8.52536712	      7.04245622	      5.47119781	      2.33386871	      1.06164079	      1.05518536	    -12.86428125	    -10.82529694	    -14.44309901	     59.73472161	      1.04256757	    -27.65043699	    -13.80112199	      0.00000000	     25.87987003	     11.40133083	     -1.84831135	      6.58178915	      0.11487389	      9.76391243	      4.45919450	      0.00000000
     22.65333333	     -8.41603920	      7.46188042	      5.79782055	      2.33318457	      1.05778298	      1.05514852	    -12.02431680	    -11.32144347	    -13.85518287	     63.56327034	      1.10938835	    -28.97402478	    -14.04347678	      0.00000000	     25.63139683	     11.95834399	     -1.25814558	      7.00903824	      0.12233079	      9.74615148	      4.65644600	      0.00000000
     22.66000000	     -8.42067891	      7.89524177	      6.22631143	      2.33222889	      1.05333647	      1.05489135	    -10.99689414	    -11.89852545	    -13.43597853	     67.44081002	      1.17706419	    -30.10013043	    -13.99375813	      0.00000000	     25.81701518	     12.55563741	     -0.98696952	      8.39778195	      0.14656894	      9.91051287	      5.19194989	      0.00000000
